<svg width="30" height="30" viewBox="0 0 30 30" fill="none" xmlns="http://www.w3.org/2000/svg">
<path fill-rule="evenodd" clip-rule="evenodd" d="M14.5312 23.3684C15.5845 23.3684 16.5935 23.177 17.526 22.8266L19.1915 28.597C17.7286 29.0972 16.1613 29.3684 14.5312 29.3684C6.50586 29.3684 0 22.7941 0 14.6842C0 6.57435 6.50586 0 14.5312 0C22.5566 0 29.0625 6.57435 29.0625 14.6842C29.0625 16.5943 28.7016 18.4191 28.045 20.093L22.4993 17.9434C22.9028 16.9371 23.125 15.8369 23.125 14.6842C23.125 9.88805 19.2774 6 14.5312 6C9.78505 6 5.9375 9.88805 5.9375 14.6842C5.9375 19.4804 9.78505 23.3684 14.5312 23.3684ZM18.75 18.4737L22.0312 30L30 22.8947L18.75 18.4737Z" fill="#3D4286"/>
</svg>
