<svg width="36" height="22" viewBox="0 0 36 22" fill="none" xmlns="http://www.w3.org/2000/svg">
<path d="M28.8 21.5982H26.1C25.6032 21.5982 25.2 21.195 25.2 20.6982C25.2 20.2014 25.6032 19.7982 26.1 19.7982H28.8C31.7772 19.7982 34.2 17.3754 34.2 14.3982C34.2 11.421 31.7772 8.9982 28.8 8.9982C28.1826 8.9982 27.576 9.1008 27 9.3042C26.6094 9.4428 26.1756 9.2952 25.9488 8.9496C25.722 8.604 25.758 8.1468 26.0406 7.8444C26.6598 7.1766 27 6.3072 27 5.3982C27 3.4128 25.3836 1.7982 23.4 1.7982C21.501 1.7982 19.9242 3.2796 19.8072 5.1732C19.7838 5.5548 19.521 5.8806 19.1538 5.9832C18.7866 6.0858 18.3924 5.9472 18.1728 5.634C16.4862 3.2328 13.7304 1.7982 10.8 1.7982C5.8374 1.7982 1.8 5.8356 1.8 10.7982C1.8 15.4872 5.3172 19.341 9.9792 19.7622C10.4742 19.8072 10.8414 20.2446 10.7946 20.7396C10.7496 21.2346 10.3122 21.6 9.8172 21.555C7.1424 21.3138 4.6674 20.088 2.844 18.1044C1.008 16.1082 -4.63486e-08 13.5126 -4.63486e-08 10.8C-4.63486e-08 4.8456 4.8456 -2.60925e-07 10.8 -2.60925e-07C13.6998 -2.60925e-07 16.4556 1.17 18.4698 3.1968C19.3194 1.3068 21.2184 -2.60925e-07 23.4 -2.60925e-07C26.3772 -2.60925e-07 28.8 2.4228 28.8 5.4C28.8 6.0228 28.6938 6.633 28.4904 7.2072C28.593 7.2036 28.6974 7.2 28.8 7.2C32.7708 7.2 36 10.4292 36 14.4C36 18.3708 32.7708 21.6 28.8 21.6V21.5982Z" fill="#F97239"/>
</svg>
