<svg width="30" height="31" viewBox="0 0 30 31" fill="none" xmlns="http://www.w3.org/2000/svg">
<path d="M19.6378 10.8514C19.21 10.8514 18.8628 10.5042 18.8628 10.0764C18.8628 9.64863 19.21 9.30144 19.6378 9.30144C20.0656 9.30144 20.4128 8.95424 20.4128 8.52645C20.4128 8.09866 20.76 7.75147 21.1878 7.75147C21.6155 7.75147 21.9627 8.09866 21.9627 8.52645C21.9627 9.80828 20.9196 10.8514 19.6378 10.8514Z" fill="#F97239"/>
<path d="M19.7695 23.251C19.4502 23.251 19.1511 23.0526 19.0395 22.7348C18.9217 22.4032 18.8628 22.056 18.8628 21.701C18.8628 19.9898 20.2531 18.6011 21.9627 18.6011C22.3146 18.6011 22.6649 18.66 22.9966 18.7778C23.3996 18.9204 23.6135 19.3637 23.4693 19.7667C23.3267 20.1696 22.8834 20.3835 22.4804 20.2394C22.3146 20.1805 22.141 20.151 21.9643 20.151C21.1103 20.151 20.4143 20.847 20.4143 21.701C20.4143 21.8793 20.4438 22.0529 20.5027 22.2172C20.6468 22.6202 20.4345 23.0634 20.0299 23.206C19.9447 23.2355 19.8579 23.251 19.7711 23.251H19.7695V23.251Z" fill="#F97239"/>
<path d="M29.7127 16.2763C29.7127 12.4649 28.5285 8.83484 26.2872 5.769C25.7091 4.05628 24.3994 2.64735 22.6618 1.97311C21.8187 0.779636 20.4299 0 18.8629 0C17.2478 0 15.8218 0.827685 14.9879 2.08316C14.154 0.829235 12.7281 0 11.113 0C9.54597 0 8.15719 0.779636 7.31401 1.97311C5.57494 2.6489 4.26521 4.05628 3.68862 5.769C1.44736 8.83484 0.263184 12.4649 0.263184 16.2763C0.263184 17.2915 0.349982 18.3098 0.520479 19.3034C0.349982 20.0752 0.263184 20.8797 0.263184 21.7012C0.263184 24.1563 1.05057 26.472 2.48119 28.2204C3.94902 30.0137 5.91283 31.001 8.01305 31.001C8.42069 31.001 8.82988 30.9623 9.22978 30.8879C9.58782 30.9623 9.95826 31.001 10.338 31.001C12.3096 31.001 14.0378 29.9439 14.9879 28.3676C15.9381 29.9439 17.6647 31.001 19.6378 31.001C20.0176 31.001 20.388 30.9623 20.7461 30.8879C21.1475 30.9638 21.5567 31.001 21.9628 31.001C24.063 31.001 26.0268 30.0137 27.4946 28.2204C28.9253 26.472 29.7127 24.1563 29.7127 21.7012C29.7127 20.8781 29.6259 20.0752 29.4554 19.3034C29.6259 18.3098 29.7127 17.293 29.7127 16.2763ZM10.338 29.451C8.20214 29.451 6.46307 27.712 6.46307 25.5761C6.46307 25.1483 6.11588 24.8011 5.68809 24.8011C5.26029 24.8011 4.9131 25.1483 4.9131 25.5761C4.9131 26.9339 5.41374 28.1754 6.24143 29.1286C3.68397 28.1738 1.81316 25.2057 1.81316 21.7012C1.81316 19.9063 2.31845 18.1548 3.23448 16.7707C3.47008 16.4142 3.37243 15.9322 3.01594 15.6966C2.65944 15.461 2.17895 15.5586 1.9418 15.9151C1.8984 15.9802 1.85656 16.0469 1.81471 16.112C1.83951 13.6274 2.41455 11.2326 3.49953 9.04874C3.74132 10.188 4.30241 11.2388 5.13475 12.0898C5.28819 12.2463 5.48814 12.3223 5.68809 12.3223C5.88338 12.3223 6.08023 12.2479 6.23058 12.0991C6.53592 11.8015 6.54212 11.3086 6.24298 11.0033C5.38429 10.1306 4.91465 8.97279 4.91465 7.74986C4.91465 6.38899 5.50519 5.13041 6.48012 4.26862C6.46927 4.39417 6.46462 4.52127 6.46462 4.64992C6.46462 4.96301 6.49562 5.27456 6.55762 5.5799C6.63357 5.94725 6.95752 6.20144 7.31556 6.20144C7.36671 6.20144 7.41786 6.19679 7.47211 6.18594C7.8906 6.09914 8.16029 5.6915 8.07815 5.27301C8.0363 5.06996 8.01615 4.85916 8.01615 4.65147C8.01615 2.94185 9.40647 1.55152 11.1161 1.55152C12.8242 1.55152 14.216 2.94185 14.216 4.65147V15.1386C13.393 14.4008 12.3049 13.9513 11.1161 13.9513C10.8014 13.9513 10.4868 13.9823 10.1799 14.0459C9.75987 14.1311 9.49017 14.5403 9.57387 14.9603C9.65912 15.3788 10.0683 15.6485 10.4884 15.5648C10.6929 15.523 10.9037 15.5013 11.1145 15.5013C12.8226 15.5013 14.2145 16.8916 14.2145 18.6012V25.5761C14.2145 27.712 12.4754 29.451 10.3396 29.451V29.451H10.338ZM23.7329 29.1271C24.559 28.1754 25.0627 26.9323 25.0627 25.5761C25.0627 25.1483 24.7156 24.8011 24.2878 24.8011C23.86 24.8011 23.5128 25.1483 23.5128 25.5761C23.5128 27.712 21.7737 29.451 19.6378 29.451C17.502 29.451 15.7629 27.712 15.7629 25.5761V18.6012C15.7629 16.89 17.1532 15.5013 18.8629 15.5013C19.0737 15.5013 19.2844 15.523 19.489 15.5648C19.9075 15.6501 20.3183 15.3804 20.4035 14.9603C20.4888 14.5403 20.2191 14.1311 19.7975 14.0443C19.4921 13.9839 19.1775 13.9498 18.8613 13.9498C17.6709 13.9498 16.5844 14.3992 15.7614 15.137V4.64992C15.7614 2.93875 17.1517 1.54997 18.8613 1.54997C20.5694 1.54997 21.9612 2.93875 21.9612 4.64992C21.9612 4.85916 21.9411 5.06686 21.8993 5.27146C21.814 5.6915 22.0852 6.09914 22.5053 6.18439C22.558 6.19524 22.6091 6.19989 22.6618 6.19989C23.0214 6.19989 23.3454 5.94569 23.4198 5.57835C23.4818 5.27611 23.5128 4.96146 23.5128 4.64992C23.5128 4.52127 23.5066 4.39417 23.4973 4.26862C24.4722 5.13506 25.0627 6.38899 25.0627 7.74986C25.0627 8.97434 24.5916 10.1291 23.7329 11.0033C23.4353 11.3086 23.4399 11.8015 23.7453 12.0991C23.8956 12.2479 24.0925 12.3223 24.2878 12.3223C24.4893 12.3223 24.6892 12.2448 24.8411 12.0898C25.6734 11.2388 26.233 10.1895 26.4763 9.04874C27.5613 11.2295 28.1363 13.6274 28.1611 16.112C28.1193 16.0453 28.0774 15.9802 28.034 15.9151C27.7984 15.5602 27.3164 15.461 26.9599 15.6966C26.605 15.9322 26.5058 16.4142 26.7414 16.7707C27.6574 18.1548 28.1627 19.9063 28.1627 21.7012C28.1627 25.2041 26.2934 28.1723 23.7329 29.1271Z" fill="#F97239"/>
<path d="M10.3379 10.8514C9.05607 10.8514 8.01294 9.80828 8.01294 8.52645C8.01294 8.09866 8.36013 7.75147 8.78793 7.75147C9.21572 7.75147 9.56291 8.09866 9.56291 8.52645C9.56291 8.95424 9.91011 9.30144 10.3379 9.30144C10.7657 9.30144 11.1129 9.64863 11.1129 10.0764C11.1129 10.5042 10.7657 10.8514 10.3379 10.8514Z" fill="#F97239"/>
<path d="M10.2063 23.251C10.1211 23.251 10.0327 23.237 9.94746 23.206C9.54446 23.0634 9.33057 22.6202 9.47472 22.2172C9.53361 22.0513 9.56306 21.8777 9.56306 21.701C9.56306 20.847 8.86713 20.151 8.01309 20.151C7.83484 20.151 7.66125 20.1805 7.49695 20.2394C7.09396 20.3835 6.65067 20.1712 6.50807 19.7667C6.36392 19.3621 6.57627 18.9204 6.98081 18.7778C7.3125 18.66 7.66125 18.6011 8.01464 18.6011C9.72426 18.6011 11.1146 19.9898 11.1146 21.701C11.1146 22.056 11.0557 22.4032 10.9379 22.7348C10.8263 23.0526 10.5256 23.251 10.2079 23.251H10.2063V23.251Z" fill="#F97239"/>
</svg>
