<svg width="44" height="26" viewBox="0 0 44 26" fill="none" xmlns="http://www.w3.org/2000/svg">
<path d="M34.6632 25.7979H31.4382C30.8448 25.7979 30.3632 25.3163 30.3632 24.7229C30.3632 24.1295 30.8448 23.6479 31.4382 23.6479H34.6632C38.2193 23.6479 41.1132 20.754 41.1132 17.1978C41.1132 13.6417 38.2193 10.7478 34.6632 10.7478C33.9257 10.7478 33.2012 10.8704 32.5132 11.1133C32.0466 11.2789 31.5285 11.1026 31.2576 10.6898C30.9867 10.277 31.0297 9.7309 31.3672 9.3697C32.1068 8.57205 32.5132 7.5336 32.5132 6.44785C32.5132 4.0764 30.5825 2.14785 28.2132 2.14785C25.9449 2.14785 24.0615 3.9173 23.9218 6.1791C23.8938 6.6349 23.5799 7.02405 23.1413 7.1466C22.7027 7.26915 22.2319 7.1036 21.9696 6.7295C19.955 3.8614 16.6634 2.14785 13.1632 2.14785C7.23563 2.14785 2.41318 6.9703 2.41318 12.8978C2.41318 18.4986 6.61428 23.1018 12.1828 23.6049C12.774 23.6586 13.2126 24.1811 13.1567 24.7723C13.103 25.3636 12.5805 25.8 11.9893 25.7462C8.79438 25.4581 5.83813 23.994 3.66018 21.6247C1.46718 19.2404 0.263184 16.1401 0.263184 12.9C0.263184 5.7878 6.05098 -3.11661e-07 13.1632 -3.11661e-07C16.6268 -3.11661e-07 19.9185 1.3975 22.3243 3.8184C23.3391 1.5609 25.6074 -3.11661e-07 28.2132 -3.11661e-07C31.7693 -3.11661e-07 34.6632 2.8939 34.6632 6.45C34.6632 7.1939 34.5363 7.92275 34.2934 8.6086C34.4159 8.6043 34.5406 8.6 34.6632 8.6C39.4061 8.6 43.2632 12.4571 43.2632 17.2C43.2632 21.9429 39.4061 25.8 34.6632 25.8V25.7979Z" fill="#F97239"/>
<path d="M25.9622 11.4552C24.8227 10.9994 23.3284 10.7478 21.7632 10.7478C20.1959 10.7478 18.7016 10.9994 17.5643 11.4552C15.6056 12.2378 15.3132 13.3687 15.3132 13.9728V22.5728C15.3132 23.177 15.6056 24.3079 17.5643 25.0905C18.7038 25.5463 20.198 25.7978 21.7632 25.7978C23.3306 25.7978 24.8248 25.5463 25.9622 25.0905C27.9208 24.3079 28.2132 23.177 28.2132 22.5728V13.9728C28.2132 13.3687 27.9208 12.2378 25.9622 11.4552ZM26.0632 18.232C25.8762 18.5652 24.3884 19.3478 21.7632 19.3478C19.1381 19.3478 17.6503 18.5652 17.4632 18.232V16.4496C17.4955 16.4625 17.5299 16.4776 17.5643 16.4905C18.7038 16.9463 20.198 17.1978 21.7632 17.1978C23.3306 17.1978 24.8248 16.9463 25.9622 16.4905C25.9966 16.4776 26.0288 16.4625 26.0632 16.4496V18.232ZM21.7632 12.8978C24.2873 12.8978 25.7601 13.6202 26.0374 13.9728C25.7601 14.3254 24.2873 15.0478 21.7632 15.0478C19.2391 15.0478 17.7664 14.3254 17.4912 13.9728C17.7685 13.6202 19.2413 12.8978 21.7632 12.8978ZM21.7632 23.6478C19.1424 23.6478 17.6546 22.8674 17.4632 22.5341V20.7496C17.4955 20.7625 17.5299 20.7776 17.5643 20.7905C18.7038 21.2463 20.198 21.4978 21.7632 21.4978C23.3306 21.4978 24.8248 21.2463 25.9622 20.7905C25.9966 20.7776 26.0288 20.7625 26.0632 20.7496V22.5341C25.8719 22.8674 24.3841 23.6478 21.7632 23.6478Z" fill="#F97239"/>
</svg>
