<svg width="34" height="33" viewBox="0 0 34 33" fill="none" xmlns="http://www.w3.org/2000/svg">
<path d="M31.2376 33H3.18765C1.8231 33 0.712646 31.8895 0.712646 30.525V2.475C0.712646 1.11045 1.8231 6.67191e-07 3.18765 6.67191e-07H31.2376C32.6022 6.67191e-07 33.7126 1.11045 33.7126 2.475V30.525C33.7126 31.8895 32.6022 33 31.2376 33ZM3.18765 1.65C2.73225 1.65 2.36265 2.0196 2.36265 2.475V30.525C2.36265 30.9804 2.73225 31.35 3.18765 31.35H31.2376C31.693 31.35 32.0626 30.9804 32.0626 30.525V2.475C32.0626 2.0196 31.693 1.65 31.2376 1.65H3.18765V1.65Z" fill="#F97239"/>
<path d="M18.3797 16.5L30.1706 4.70913C30.4924 4.38738 30.4924 3.86433 30.1706 3.54258C29.8489 3.22083 29.3258 3.22083 29.0041 3.54258L17.2132 15.3335L15.9047 14.025L25.2206 4.70913C25.5424 4.38738 25.5424 3.86433 25.2206 3.54258C24.8989 3.22083 24.3758 3.22083 24.0541 3.54258L14.7382 12.8585L13.4297 11.55L20.2706 4.70913C20.5924 4.38738 20.5924 3.86433 20.2706 3.54258C19.9489 3.22083 19.4258 3.22083 19.1041 3.54258L12.2632 10.3835L10.9547 9.07503L15.3206 4.70913C15.6424 4.38738 15.6424 3.86433 15.3206 3.54258C14.9989 3.22083 14.4758 3.22083 14.1541 3.54258L9.78817 7.90848L8.47972 6.60003L10.3706 4.70913C10.6924 4.38738 10.6924 3.86433 10.3706 3.54258C10.0489 3.22083 9.52582 3.22083 9.20407 3.54258L7.31317 5.43348L5.42227 3.54258C5.10052 3.22083 4.57747 3.22083 4.25572 3.54258C3.93397 3.86433 3.93397 4.38738 4.25572 4.70913L6.14662 6.60003L4.25572 8.49093C3.93397 8.81268 3.93397 9.33573 4.25572 9.65748L6.14662 11.5484L4.25572 13.4393C3.93397 13.761 3.93397 14.2841 4.25572 14.6058L6.14662 16.4967L4.25572 18.3876C3.93397 18.7094 3.93397 19.2324 4.25572 19.5542L6.14662 21.4451L4.25572 23.336C3.93397 23.6577 3.93397 24.1808 4.25572 24.5025L6.14662 26.3934L4.25572 28.2843C3.93397 28.6061 3.93397 29.1291 4.25572 29.4509C4.41742 29.6126 4.62862 29.6918 4.83982 29.6918C5.05102 29.6918 5.26222 29.6109 5.42392 29.4509L7.31482 27.56L9.20572 29.4509C9.36742 29.6126 9.57862 29.6918 9.78982 29.6918C10.001 29.6918 10.2122 29.6109 10.3739 29.4509C10.6957 29.1291 10.6957 28.6061 10.3739 28.2843L8.48302 26.3934L9.79147 25.085L14.1574 29.4509C14.3191 29.6126 14.5303 29.6918 14.7415 29.6918C14.9527 29.6918 15.1639 29.6109 15.3256 29.4509C15.6473 29.1291 15.6473 28.6061 15.3256 28.2843L10.9597 23.9184L12.2681 22.61L19.109 29.4509C19.2707 29.6126 19.4819 29.6918 19.6931 29.6918C19.9043 29.6918 20.1155 29.6109 20.2772 29.4509C20.599 29.1291 20.599 28.6061 20.2772 28.2843L13.4363 21.4434L14.7448 20.135L24.0607 29.4509C24.2224 29.6126 24.4336 29.6918 24.6448 29.6918C24.856 29.6918 25.0672 29.6109 25.2289 29.4509C25.5506 29.1291 25.5506 28.6061 25.2289 28.2843L15.913 18.9684L17.2214 17.66L29.0123 29.4509C29.174 29.6126 29.3852 29.6918 29.5964 29.6918C29.8076 29.6918 30.0188 29.6109 30.1805 29.4509C30.5023 29.1291 30.5023 28.6061 30.1805 28.2843L18.3896 16.4934L18.3797 16.5ZM13.5716 14.025L12.2632 15.3335L10.9547 14.025L12.2632 12.7166L13.5716 14.025ZM11.0966 16.5L9.78817 17.8085L8.47972 16.5L9.78817 15.1916L11.0966 16.5ZM11.0966 11.55L9.78817 12.8585L8.47972 11.55L9.78817 10.2416L11.0966 11.55ZM6.00472 9.07503L7.31317 7.76658L8.62162 9.07503L7.31317 10.3835L6.00472 9.07503ZM6.00472 14.025L7.31317 12.7166L8.62162 14.025L7.31317 15.3335L6.00472 14.025ZM6.00472 18.975L7.31317 17.6666L8.62162 18.975L7.31317 20.2835L6.00472 18.975ZM7.31317 25.2335L6.00472 23.925L7.31317 22.6166L8.62162 23.925L7.31317 25.2335ZM9.78817 22.7585L8.47972 21.45L9.78817 20.1416L11.0966 21.45L9.78817 22.7585ZM12.2632 20.2835L10.9547 18.975L12.2632 17.6666L13.5716 18.975L12.2632 20.2835ZM14.7382 17.8085L13.4297 16.5L14.7382 15.1916L16.0466 16.5L14.7382 17.8085Z" fill="#F97239"/>
</svg>
