<svg width="26" height="32" viewBox="0 0 26 32" fill="none" xmlns="http://www.w3.org/2000/svg">
<path d="M21.0524 28.6315H4.21027C3.74543 28.6315 3.36816 28.2542 3.36816 27.7894C3.36816 27.3245 3.74543 26.9473 4.21027 26.9473H21.0524C21.5172 26.9473 21.8945 27.3245 21.8945 27.7894C21.8945 28.2542 21.5172 28.6315 21.0524 28.6315Z" fill="#F97239"/>
<path d="M24.4211 3.36842C23.9562 3.36842 23.5789 3.74569 23.5789 4.21053V29.4737C23.5789 29.9385 23.2017 30.3158 22.7368 30.3158H4.21053C2.81768 30.3158 1.68421 29.1823 1.68421 27.7895C1.68421 26.3966 2.81768 25.2632 4.21053 25.2632H19.3684C20.7613 25.2632 21.8947 24.1297 21.8947 22.7368V2.52632C21.8947 1.13347 20.7613 6.81024e-07 19.3684 6.81024e-07H2.52632C1.13347 6.81024e-07 1.57406e-07 1.13347 1.57406e-07 2.52632V27.7895C1.57406e-07 30.1103 1.88968 32 4.21053 32H22.7368C24.1297 32 25.2632 30.8665 25.2632 29.4737V4.21053C25.2632 3.74569 24.8859 3.36842 24.4211 3.36842ZM6.73684 1.68421H10.1053V12.2829L9.01558 11.1949C8.68884 10.8665 8.15326 10.8665 7.82653 11.1949L6.73684 12.2829V1.68421ZM1.68421 2.52632C1.68421 2.06147 2.06147 1.68421 2.52632 1.68421H5.05263V14.3158C5.05263 14.656 5.2581 14.9642 5.57137 15.0939C5.888 15.2236 6.24842 15.1528 6.48926 14.912L8.42105 12.9819L10.3512 14.912C10.5128 15.0754 10.7284 15.1579 10.9474 15.1579C11.0552 15.1579 11.1646 15.1377 11.2691 15.0939C11.5823 14.9642 11.7895 14.656 11.7895 14.3158V1.68421H19.3684C19.8333 1.68421 20.2105 2.06147 20.2105 2.52632V22.7368C20.2105 23.2017 19.8333 23.5789 19.3684 23.5789H4.21053C3.264 23.5789 2.38821 23.8956 1.68421 24.4227V2.52632V2.52632Z" fill="#F97239"/>
</svg>
