<svg width="21" height="21" viewBox="0 0 21 21" fill="none" xmlns="http://www.w3.org/2000/svg">
<path fill-rule="evenodd" clip-rule="evenodd" d="M13.2878 21C17.7337 19.7566 21 15.6119 21 10.6904C21 4.78627 16.299 0 10.5 0C4.70101 0 0 4.78627 0 10.6904C0 15.6117 3.26613 19.7564 7.71184 20.9999C8.05822 20.932 8.27962 20.5337 8.27962 20.3085C8.27962 20.1943 8.27755 19.8164 8.27506 19.3614C8.27233 18.8638 8.2691 18.2741 8.26753 17.8365C5.68354 18.4419 5.13955 16.4881 5.13955 16.4881C4.71644 15.3262 4.10898 15.0153 4.10898 15.0153C3.26578 14.3935 4.17244 14.4066 4.17244 14.4066C5.10328 14.4786 5.59288 15.4408 5.59288 15.4408C6.42096 16.979 7.76584 16.5339 8.29473 16.2786C8.37935 15.6273 8.62112 15.1855 8.88406 14.9335C6.82291 14.6815 4.656 13.8175 4.656 9.96538C4.656 8.86572 5.01866 7.96897 5.61101 7.26532C5.51732 7.01331 5.19697 5.98893 5.70168 4.60454C5.70168 4.60454 6.48141 4.33617 8.25544 5.63547C8.99588 5.41292 9.79072 5.30164 10.5795 5.29837C11.3683 5.30164 12.1631 5.41292 12.9036 5.63547C14.6776 4.33617 15.4543 4.60454 15.4543 4.60454C15.962 5.98893 15.6447 7.01331 15.548 7.26532C16.1434 7.96897 16.5 8.86572 16.5 9.96538C16.5 13.8273 14.3301 14.6749 12.2629 14.9269C12.5953 15.2346 12.8915 15.8499 12.8915 16.7859C12.8915 17.6852 12.8874 18.8088 12.8848 19.5536C12.8834 19.9228 12.8824 20.1989 12.8824 20.3085C12.8824 20.5314 12.9833 20.9284 13.2878 21Z" fill="#CECFE9"/>
</svg>
