<svg width="29" height="28" viewBox="0 0 29 28" fill="none" xmlns="http://www.w3.org/2000/svg">
<path d="M14.7948 28C22.6267 28 28.9757 21.732 28.9757 14C28.9757 6.26801 22.6267 0 14.7948 0C6.96281 0 0.61377 6.26801 0.61377 14C0.61377 21.732 6.96281 28 14.7948 28Z" fill="#3D4286"/>
<path d="M23.2675 15.1269V20.8988H19.8779V15.5137C19.8779 14.1616 19.3885 13.2382 18.1612 13.2382C17.2246 13.2382 16.6682 13.8599 16.4225 14.4618C16.3333 14.677 16.3103 14.9757 16.3103 15.2774V20.8986H12.9204C12.9204 20.8986 12.9659 11.778 12.9204 10.8339H16.3105V12.2602C16.3037 12.2714 16.2941 12.2824 16.288 12.2931H16.3105V12.2602C16.761 11.5759 17.5644 10.5976 19.3655 10.5976C21.5956 10.5976 23.2675 12.0361 23.2675 15.1269ZM9.37422 5.98242C8.21468 5.98242 7.45605 6.73386 7.45605 7.72113C7.45605 8.68744 8.19268 9.46058 9.32973 9.46058H9.35172C10.534 9.46058 11.2691 8.68744 11.2691 7.72113C11.2466 6.73386 10.534 5.98242 9.37422 5.98242ZM7.65753 20.8988H11.0462V10.8339H7.65753V20.8988Z" fill="white"/>
</svg>
