<svg width="21" height="21" viewBox="0 0 21 21" fill="none" xmlns="http://www.w3.org/2000/svg">
<path d="M11.6223 9.19514V9.21984H11.6057C11.608 9.21557 11.6112 9.21124 11.6143 9.20686C11.6171 9.20299 11.6199 9.19909 11.6223 9.19514Z" fill="#CECFE9"/>
<path fill-rule="evenodd" clip-rule="evenodd" d="M21 10.5C21 16.299 16.299 21 10.5 21C4.70101 21 0 16.299 0 10.5C0 4.70101 4.70101 0 10.5 0C16.299 0 21 4.70101 21 10.5ZM16.7735 15.6741V11.3452C16.7735 9.02706 15.5355 7.9482 13.8843 7.9482C12.5507 7.9482 11.9559 8.68191 11.6223 9.19514V8.12545H9.11214C9.14583 8.83352 9.11214 15.6739 9.11214 15.6739H11.6221V11.4581C11.6221 11.2318 11.6392 11.0077 11.7052 10.8464C11.8872 10.3949 12.2991 9.92867 12.9926 9.92867C13.9013 9.92867 14.2637 10.6212 14.2637 11.6353V15.6741H16.7735ZM5.06622 5.79085C5.06622 5.05039 5.62792 4.48682 6.48648 4.48682C7.34523 4.48682 7.87287 5.05039 7.88953 5.79085C7.88953 6.51558 7.34523 7.09544 6.46983 7.09544H6.45354C5.61164 7.09544 5.06622 6.51558 5.06622 5.79085ZM7.72444 15.6741H5.2154V8.12545H7.72444V15.6741Z" fill="#CECFE9"/>
</svg>
