<svg width="28" height="27" viewBox="0 0 28 27" fill="none" xmlns="http://www.w3.org/2000/svg">
<path d="M14.2515 26.2125C21.5835 26.2125 27.5272 20.3447 27.5272 13.1063C27.5272 5.86788 21.5835 0 14.2515 0C6.91956 0 0.97583 5.86788 0.97583 13.1063C0.97583 20.3447 6.91956 26.2125 14.2515 26.2125Z" fill="#3D4286"/>
<path d="M22.3829 9.41927C21.814 9.66832 21.202 9.83677 20.5602 9.912C21.2155 9.5244 21.7183 8.91112 21.9557 8.17915C21.3425 8.53825 20.6631 8.79875 19.9406 8.93916C19.3618 8.33055 18.537 7.9502 17.6238 7.9502C15.8716 7.9502 14.4505 9.35315 14.4505 11.083C14.4505 11.3285 14.4787 11.5675 14.5331 11.7969C11.8959 11.6663 9.55752 10.4192 7.9923 8.52329C7.7192 8.98588 7.56254 9.5244 7.56254 10.0984C7.56254 11.1851 8.12317 12.1443 8.97417 12.706C8.45425 12.6899 7.96461 12.549 7.53698 12.3137C7.53675 12.327 7.53675 12.3404 7.53675 12.3534C7.53675 13.8714 8.63102 15.1374 10.0824 15.425C9.81641 15.497 9.53551 15.535 9.24656 15.535C9.04162 15.535 8.84306 15.5157 8.64948 15.4792C9.05321 16.7235 10.2249 17.6293 11.6138 17.6548C10.5276 18.4952 9.15947 18.9958 7.67235 18.9958C7.41676 18.9958 7.16355 18.9811 6.91577 18.9519C8.31935 19.8411 9.98775 20.3595 11.7797 20.3595C17.6165 20.3595 20.8084 15.586 20.8084 11.4458C20.8084 11.3101 20.8053 11.1748 20.7992 11.0407C21.4197 10.5991 21.9576 10.0475 22.3829 9.41927Z" fill="white"/>
</svg>
