<svg width="21" height="21" viewBox="0 0 21 21" fill="none" xmlns="http://www.w3.org/2000/svg">
<path fill-rule="evenodd" clip-rule="evenodd" d="M21 10.5C21 16.299 16.299 21 10.5 21C4.70101 21 0 16.299 0 10.5C0 4.70101 4.70101 0 10.5 0C16.299 0 21 4.70101 21 10.5ZM15.4896 7.94094C15.9972 7.88067 16.4813 7.74571 16.9312 7.54619C16.5949 8.0495 16.1694 8.49141 15.6787 8.84517C15.6835 8.9526 15.686 9.06098 15.686 9.16972C15.686 12.4866 13.1614 16.3109 8.54497 16.3109C7.1277 16.3109 5.80813 15.8956 4.69801 15.1832C4.89398 15.2066 5.09426 15.2184 5.2964 15.2184C6.47259 15.2184 7.55464 14.8173 8.41376 14.144C7.31524 14.1236 6.38855 13.3979 6.06924 12.4011C6.22234 12.4303 6.37938 12.4458 6.54147 12.4458C6.77001 12.4458 6.99218 12.4153 7.20257 12.3576C6.05464 12.1272 5.18915 11.1129 5.18915 9.89689C5.18915 9.8864 5.18915 9.87574 5.18934 9.86507C5.52756 10.0536 5.91482 10.1664 6.32604 10.1793C5.65297 9.72937 5.20955 8.96084 5.20955 8.0903C5.20955 7.63042 5.33346 7.19898 5.54946 6.82838C6.78742 8.34729 8.63687 9.34641 10.7227 9.45104C10.6797 9.26724 10.6574 9.07576 10.6574 8.87904C10.6574 7.49322 11.7814 6.36925 13.1672 6.36925C13.8895 6.36925 14.5418 6.67397 14.9996 7.16155C15.571 7.04906 16.1084 6.84036 16.5934 6.55268C16.4056 7.13909 16.0079 7.63042 15.4896 7.94094Z" fill="#CECFE9"/>
</svg>
