<svg width="27" height="27" viewBox="0 0 27 27" fill="none" xmlns="http://www.w3.org/2000/svg">
<path d="M14.6671 13.5L26.458 1.70913C26.7797 1.38738 26.7797 0.864332 26.458 0.542582C26.1362 0.220832 25.6132 0.220832 25.2914 0.542582L13.5005 12.3335L12.1921 11.025L21.508 1.70913C21.8297 1.38738 21.8297 0.864332 21.508 0.542582C21.1862 0.220832 20.6632 0.220832 20.3414 0.542582L11.0255 9.85848L9.71707 8.55003L16.558 1.70913C16.8797 1.38738 16.8797 0.864332 16.558 0.542582C16.2362 0.220832 15.7132 0.220832 15.3914 0.542582L8.55052 7.38348L7.24207 6.07503L11.608 1.70913C11.9297 1.38738 11.9297 0.864332 11.608 0.542582C11.2862 0.220832 10.7632 0.220832 10.4414 0.542582L6.07552 4.90848L4.76707 3.60003L6.65797 1.70913C6.97972 1.38738 6.97972 0.864332 6.65797 0.542582C6.33622 0.220832 5.81317 0.220832 5.49142 0.542582L3.60052 2.43348L1.70962 0.542582C1.38787 0.220832 0.86482 0.220832 0.54307 0.542582C0.22132 0.864332 0.22132 1.38738 0.54307 1.70913L2.43397 3.60003L0.54307 5.49093C0.22132 5.81268 0.22132 6.33573 0.54307 6.65748L2.43397 8.54838L0.54307 10.4393C0.22132 10.761 0.22132 11.2841 0.54307 11.6058L2.43397 13.4967L0.54307 15.3876C0.22132 15.7094 0.22132 16.2324 0.54307 16.5542L2.43397 18.4451L0.54307 20.336C0.22132 20.6577 0.22132 21.1808 0.54307 21.5025L2.43397 23.3934L0.54307 25.2843C0.22132 25.6061 0.22132 26.1291 0.54307 26.4509C0.70477 26.6126 0.91597 26.6918 1.12717 26.6918C1.33837 26.6918 1.54957 26.6109 1.71127 26.4509L3.60217 24.56L5.49307 26.4509C5.65477 26.6126 5.86597 26.6918 6.07717 26.6918C6.28837 26.6918 6.49957 26.6109 6.66127 26.4509C6.98302 26.1291 6.98302 25.6061 6.66127 25.2843L4.77037 23.3934L6.07882 22.085L10.4447 26.4509C10.6064 26.6126 10.8176 26.6918 11.0288 26.6918C11.24 26.6918 11.4512 26.6109 11.6129 26.4509C11.9347 26.1291 11.9347 25.6061 11.6129 25.2843L7.24702 20.9184L8.55547 19.61L15.3964 26.4509C15.5581 26.6126 15.7693 26.6918 15.9805 26.6918C16.1917 26.6918 16.4029 26.6109 16.5646 26.4509C16.8863 26.1291 16.8863 25.6061 16.5646 25.2843L9.72367 18.4434L11.0321 17.135L20.348 26.4509C20.5097 26.6126 20.7209 26.6918 20.9321 26.6918C21.1433 26.6918 21.3545 26.6109 21.5162 26.4509C21.838 26.1291 21.838 25.6061 21.5162 25.2843L12.2003 15.9684L13.5088 14.66L25.2997 26.4509C25.4614 26.6126 25.6726 26.6918 25.8838 26.6918C26.095 26.6918 26.3062 26.6109 26.4679 26.4509C26.7896 26.1291 26.7896 25.6061 26.4679 25.2843L14.677 13.4934L14.6671 13.5ZM9.85897 11.025L8.55052 12.3335L7.24207 11.025L8.55052 9.71658L9.85897 11.025ZM7.38397 13.5L6.07552 14.8085L4.76707 13.5L6.07552 12.1916L7.38397 13.5ZM7.38397 8.55003L6.07552 9.85848L4.76707 8.55003L6.07552 7.24158L7.38397 8.55003ZM2.29207 6.07503L3.60052 4.76658L4.90897 6.07503L3.60052 7.38348L2.29207 6.07503ZM2.29207 11.025L3.60052 9.71658L4.90897 11.025L3.60052 12.3335L2.29207 11.025ZM2.29207 15.975L3.60052 14.6666L4.90897 15.975L3.60052 17.2835L2.29207 15.975ZM3.60052 22.2335L2.29207 20.925L3.60052 19.6166L4.90897 20.925L3.60052 22.2335ZM6.07552 19.7585L4.76707 18.45L6.07552 17.1416L7.38397 18.45L6.07552 19.7585ZM8.55052 17.2835L7.24207 15.975L8.55052 14.6666L9.85897 15.975L8.55052 17.2835ZM11.0255 14.8085L9.71707 13.5L11.0255 12.1916L12.334 13.5L11.0255 14.8085Z" fill="#F97239"/>
</svg>
