<svg width="30" height="31" viewBox="0 0 30 31" fill="none" xmlns="http://www.w3.org/2000/svg">
<path d="M29.4495 16.2763C29.4495 12.4649 28.2653 8.83484 26.024 5.769C25.4459 4.05628 24.1362 2.64735 22.3987 1.97311C21.5555 0.779636 20.1667 0 18.5997 0C16.9846 0 15.5586 0.827685 14.7247 2.08316C13.8909 0.829235 12.4649 0 10.8498 0C9.28279 0 7.89401 0.779636 7.05083 1.97311C5.31176 2.6489 4.00203 4.05628 3.42544 5.769C1.18418 8.83484 -3.99106e-08 12.4649 -3.99106e-08 16.2763C-3.99106e-08 17.2915 0.0867984 18.3098 0.257295 19.3034C0.0867984 20.0752 -3.99106e-08 20.8797 -3.99106e-08 21.7012C-3.99106e-08 24.1563 0.787386 26.472 2.21801 28.2204C3.68583 30.0137 5.64965 31.001 7.74986 31.001C8.15751 31.001 8.5667 30.9622 8.96659 30.8879C9.32464 30.9622 9.69508 31.001 10.0748 31.001C12.0464 31.001 13.7746 29.9439 14.7247 28.3676C15.6749 29.9439 17.4015 31.001 19.3747 31.001C19.7544 31.001 20.1248 30.9622 20.4829 30.8879C20.8843 30.9638 21.2935 31.001 21.6996 31.001C23.7998 31.001 25.7636 30.0137 27.2315 28.2204C28.6621 26.472 29.4495 24.1563 29.4495 21.7012C29.4495 20.8781 29.3627 20.0752 29.1922 19.3034C29.3627 18.3098 29.4495 17.293 29.4495 16.2763ZM10.0748 29.451C7.93896 29.451 6.19989 27.712 6.19989 25.5761C6.19989 25.1483 5.8527 24.8011 5.4249 24.8011C4.99711 24.8011 4.64992 25.1483 4.64992 25.5761C4.64992 26.9339 5.15056 28.1754 5.97824 29.1286C3.42079 28.1738 1.54997 25.2057 1.54997 21.7012C1.54997 19.9063 2.05526 18.1548 2.9713 16.7707C3.20689 16.4142 3.10925 15.9322 2.75275 15.6966C2.39626 15.461 1.91577 15.5586 1.67862 15.9151C1.63522 15.9802 1.59337 16.0469 1.55152 16.112C1.57632 13.6274 2.15136 11.2326 3.23634 9.04874C3.47814 10.188 4.03923 11.2388 4.87156 12.0898C5.02501 12.2463 5.22496 12.3223 5.4249 12.3223C5.6202 12.3223 5.81705 12.2479 5.96739 12.0991C6.27274 11.8015 6.27894 11.3086 5.97979 11.0033C5.12111 10.1306 4.65147 8.97279 4.65147 7.74986C4.65147 6.38899 5.24201 5.13041 6.21694 4.26862C6.20609 4.39417 6.20144 4.52127 6.20144 4.64992C6.20144 4.96301 6.23244 5.27456 6.29444 5.5799C6.37039 5.94725 6.69433 6.20144 7.05238 6.20144C7.10352 6.20144 7.15467 6.19679 7.20892 6.18594C7.62741 6.09914 7.89711 5.6915 7.81496 5.27301C7.77311 5.06996 7.75296 4.85916 7.75296 4.65147C7.75296 2.94185 9.14329 1.55152 10.8529 1.55152C12.561 1.55152 13.9529 2.94185 13.9529 4.65147V15.1386C13.1298 14.4008 12.0417 13.9513 10.8529 13.9513C10.5383 13.9513 10.2236 13.9823 9.91672 14.0459C9.49668 14.1311 9.22699 14.5403 9.31069 14.9603C9.39593 15.3788 9.80513 15.6485 10.2252 15.5648C10.4298 15.523 10.6406 15.5013 10.8514 15.5013C12.5594 15.5013 13.9513 16.8916 13.9513 18.6012V25.5761C13.9513 27.712 12.2122 29.451 10.0764 29.451H10.0748ZM23.4697 29.1271C24.2958 28.1754 24.7996 26.9323 24.7996 25.5761C24.7996 25.1483 24.4524 24.8011 24.0246 24.8011C23.5968 24.8011 23.2496 25.1483 23.2496 25.5761C23.2496 27.712 21.5105 29.451 19.3747 29.451C17.2388 29.451 15.4997 27.712 15.4997 25.5761V18.6012C15.4997 16.89 16.8901 15.5013 18.5997 15.5013C18.8105 15.5013 19.0213 15.523 19.2259 15.5648C19.6444 15.6501 20.0551 15.3804 20.1403 14.9603C20.2256 14.5403 19.9559 14.1311 19.5343 14.0443C19.229 13.9839 18.9143 13.9498 18.5981 13.9498C17.4077 13.9498 16.3212 14.3992 15.4982 15.137V4.64992C15.4982 2.93875 16.8885 1.54997 18.5981 1.54997C20.3062 1.54997 21.6981 2.93875 21.6981 4.64992C21.6981 4.85916 21.6779 5.06686 21.6361 5.27146C21.5508 5.6915 21.8221 6.09914 22.2421 6.18439C22.2948 6.19524 22.346 6.19989 22.3987 6.19989C22.7582 6.19989 23.0822 5.94569 23.1566 5.57835C23.2186 5.27611 23.2496 4.96146 23.2496 4.64992C23.2496 4.52127 23.2434 4.39417 23.2341 4.26862C24.209 5.13506 24.7996 6.38899 24.7996 7.74986C24.7996 8.97434 24.3284 10.1291 23.4697 11.0033C23.1721 11.3086 23.1767 11.8015 23.4821 12.0991C23.6324 12.2479 23.8293 12.3223 24.0246 12.3223C24.2261 12.3223 24.426 12.2448 24.5779 12.0898C25.4102 11.2388 25.9698 10.1895 26.2131 9.04874C27.2981 11.2296 27.8732 13.6274 27.898 16.112C27.8561 16.0453 27.8143 15.9802 27.7709 15.9151C27.5353 15.5602 27.0532 15.461 26.6967 15.6966C26.3418 15.9322 26.2426 16.4142 26.4782 16.7707C27.3942 18.1548 27.8995 19.9063 27.8995 21.7012C27.8995 25.2041 26.0302 28.1723 23.4697 29.1271Z" fill="#F97239"/>
</svg>
